<?xml version="1.0" standalone="no"?>
<!DOCTYPE svg PUBLIC "-//W3C//DTD SVG 20010904//EN"
 "http://www.w3.org/TR/2001/REC-SVG-20010904/DTD/svg10.dtd">
<svg version="1.0" xmlns="http://www.w3.org/2000/svg"
 width="1080.000000pt" height="1080.000000pt" viewBox="0 0 1080.000000 1080.000000"
 preserveAspectRatio="xMidYMid meet">
<metadata>
Created by potrace 1.14, written by Peter Selinger 2001-2017
</metadata>
<g transform="translate(0.000000,1080.000000) scale(0.100000,-0.100000)"
fill="#000000" stroke="none">
<path d="M7681 10780 c-13 -11 -20 -20 -16 -20 4 0 -8 -21 -27 -47 -19 -27
-41 -61 -50 -78 -8 -16 -34 -65 -57 -108 -22 -42 -41 -84 -41 -92 0 -8 -7 -18
-15 -22 -8 -5 -16 -17 -18 -28 -2 -11 -7 -27 -10 -35 -3 -8 -13 -37 -21 -65
-50 -166 -60 -202 -62 -216 0 -8 -4 -31 -7 -50 -4 -19 -10 -59 -13 -89 -3 -30
-10 -60 -15 -67 -7 -7 -6 -13 0 -17 6 -4 6 -19 -1 -43 -5 -20 -8 -52 -5 -70 4
-20 2 -33 -5 -33 -6 0 -5 -7 3 -17 11 -13 11 -17 1 -20 -6 -3 -10 -8 -7 -13 3
-4 7 -37 10 -72 3 -34 8 -79 11 -98 3 -19 7 -53 8 -75 2 -22 4 -40 6 -40 1 0
3 -16 5 -35 2 -19 6 -46 10 -60 6 -24 13 -59 18 -84 1 -6 6 -14 11 -18 14 -9
-9 -33 -52 -56 -20 -11 -68 -36 -107 -57 -38 -21 -95 -50 -125 -65 -91 -46
-116 -85 -111 -175 l2 -51 -73 -38 c-40 -22 -85 -47 -100 -57 -14 -11 -29 -19
-32 -19 -3 0 -68 -38 -146 -85 -78 -47 -149 -85 -159 -85 -10 0 -24 7 -32 16
-19 23 -64 44 -96 44 -44 0 -248 -134 -543 -358 -388 -295 -708 -579 -1180
-1052 -362 -362 -465 -470 -1153 -1215 -223 -240 -473 -506 -669 -710 -131
-136 -153 -161 -198 -225 -148 -215 -184 -447 -115 -755 15 -66 33 -151 40
-190 7 -38 27 -137 45 -220 18 -82 36 -168 40 -190 20 -109 54 -255 67 -295
22 -66 72 -168 106 -219 l29 -43 -85 -87 c-46 -47 -112 -115 -145 -150 -36
-38 -64 -61 -71 -57 -22 14 -91 198 -91 242 0 10 -4 31 -9 48 -10 30 -56 243
-71 321 -7 38 -21 105 -76 353 -35 158 -43 176 -103 207 -30 15 -42 16 -86 6
-108 -24 -126 -90 -80 -301 41 -187 45 -209 60 -285 17 -88 74 -367 87 -420 5
-22 13 -60 18 -85 15 -78 63 -186 118 -264 l34 -49 -94 -92 c-52 -51 -111
-107 -132 -125 -35 -32 -37 -32 -56 -15 -11 10 -20 28 -20 41 0 13 -5 26 -10
29 -5 3 -10 17 -10 30 0 13 -5 27 -10 30 -6 3 -10 19 -10 35 0 16 -4 39 -9 52
-11 27 -41 154 -52 218 -4 25 -17 83 -29 130 -12 47 -25 105 -29 130 -5 25
-16 79 -25 120 -54 242 -62 264 -101 298 -47 42 -97 49 -154 22 -76 -36 -106
-99 -83 -178 13 -46 42 -185 48 -232 3 -19 9 -44 14 -55 5 -11 11 -45 13 -75
3 -30 8 -66 12 -80 3 -14 10 -51 14 -83 6 -46 4 -60 -8 -70 -10 -8 -13 -8 -8
0 4 6 -4 30 -17 53 -22 39 -25 41 -36 24 -10 -16 -11 -17 -6 -2 3 10 0 18 -6
18 -7 0 -4 6 7 13 14 11 15 16 5 22 -8 5 -11 4 -7 -2 9 -14 -32 -25 -51 -14
-12 7 -12 9 2 14 10 4 15 3 11 -3 -3 -6 -2 -10 4 -10 20 0 22 22 2 27 -12 3
-21 12 -21 20 0 8 -5 11 -10 8 -6 -3 -18 1 -27 11 -16 16 -16 16 6 9 l23 -7
-23 23 c-13 13 -33 22 -44 21 -15 -2 -17 -1 -6 6 10 8 11 14 1 28 -10 17 -11
17 -6 1 3 -11 2 -15 -4 -12 -6 3 -10 17 -10 31 0 17 4 23 12 18 6 -4 8 -3 4 4
-3 6 -17 9 -31 6 -13 -2 -27 1 -31 7 -4 7 -3 9 2 6 5 -3 10 3 10 13 0 10 -3
17 -7 14 -4 -2 -12 3 -19 11 -10 12 -9 15 6 16 11 0 14 3 6 6 -7 3 -19 -1 -28
-7 -12 -11 -13 -10 -8 4 3 9 1 16 -5 16 -6 0 -11 9 -11 21 0 14 -6 19 -17 17
-22 -3 -43 9 -43 25 0 6 7 2 15 -9 8 -10 15 -14 15 -8 0 17 -28 37 -43 31 -8
-3 -12 4 -11 22 0 14 -2 28 -5 31 -4 3 -12 16 -19 30 -12 23 -12 23 -8 2 2
-13 -1 -22 -9 -22 -7 0 -12 10 -11 23 1 12 -1 27 -5 32 -11 16 -76 344 -94
475 -10 69 -72 417 -105 585 -16 83 -52 274 -80 425 -28 151 -60 320 -71 375
-11 55 -27 141 -36 191 l-17 91 28 139 c16 76 39 198 51 269 28 157 74 407
120 650 33 176 64 355 126 725 57 341 87 514 104 595 54 263 91 555 126 1019
15 190 -1 242 -88 293 -79 46 -186 18 -240 -63 -42 -65 -281 -817 -327 -1029
-30 -141 -145 -614 -191 -790 -25 -93 -65 -253 -89 -355 -24 -102 -71 -297
-104 -435 -33 -137 -81 -340 -106 -450 -25 -110 -58 -252 -73 -315 -37 -160
-42 -329 -14 -454 11 -50 27 -131 36 -181 9 -49 20 -103 25 -120 5 -16 12 -46
14 -65 6 -42 12 -68 21 -95 6 -16 5 -17 -4 -5 -9 13 -11 12 -12 -5 l0 -20 -8
20 c-5 11 -6 24 -3 29 3 5 -2 7 -10 3 -17 -6 -19 8 -4 32 6 9 5 12 -2 8 -16
-11 -41 3 -35 19 3 7 10 12 15 11 6 -1 13 5 15 13 4 13 3 13 -6 0 -10 -15 -12
-13 -15 13 0 6 -11 13 -24 15 -17 3 -22 10 -22 33 0 22 -4 28 -13 23 -8 -5 -7
-2 2 10 8 9 21 14 30 11 13 -5 13 -4 4 6 -10 10 -15 9 -27 -1 -13 -10 -17 -9
-25 11 -6 15 -10 -892 -10 -2474 l-1 -2497 2810 0 c1545 0 2809 3 2809 8 -3
18 2 26 10 14 7 -11 9 -11 14 1 4 10 0 14 -11 12 -9 -2 -18 -4 -19 -5 -2 -2
-6 -3 -10 -4 -5 -1 -14 -5 -21 -10 -7 -4 -16 -5 -20 -1 -3 3 0 10 8 15 8 5 12
12 8 15 -3 3 -12 0 -20 -8 -12 -12 -19 -11 -48 4 -19 11 -29 19 -23 19 8 0 10
7 6 17 -6 14 -8 13 -17 -7 -8 -17 -7 -25 2 -28 6 -2 12 -8 12 -13 0 -5 -9 -4
-19 3 -11 7 -17 16 -15 20 3 4 7 17 9 27 3 15 0 18 -13 14 -10 -4 -12 -8 -4
-11 7 -2 10 -8 6 -13 -9 -15 -22 -10 -29 12 -6 19 -8 20 -26 3 -18 -16 -19
-16 -19 0 0 10 5 14 12 10 6 -4 8 -3 5 3 -4 5 -22 9 -42 8 -19 -2 -38 1 -40 6
-3 4 -12 6 -19 3 -8 -3 -17 0 -22 7 -4 8 -3 10 4 5 7 -4 12 -3 12 2 0 5 -11
14 -25 20 -27 12 -33 4 -12 -18 10 -12 9 -12 -5 -2 -9 7 -18 9 -20 5 -3 -4 -3
-2 -1 6 2 9 -2 11 -13 7 -12 -5 -15 -2 -10 9 3 9 2 13 -4 10 -6 -3 -15 -3 -22
1 -8 5 -6 10 8 16 15 6 13 7 -8 3 -37 -7 -57 3 -53 26 2 10 0 21 -6 24 -8 5
-14 -15 -10 -37 2 -12 -12 -9 -34 9 l-20 16 20 -7 c20 -6 20 -6 0 9 -11 9 -21
11 -23 6 -2 -5 -10 -7 -18 -4 -12 4 -12 8 3 20 10 8 12 12 5 8 -7 -4 -19 -2
-26 4 -11 9 -18 8 -29 -3 -13 -14 -16 -14 -21 1 -4 8 -1 22 5 29 9 11 7 14
-10 14 -14 0 -20 -4 -15 -12 4 -6 3 -8 -4 -4 -5 3 -13 0 -15 -6 -4 -10 -6 -10
-6 0 -1 7 -6 10 -13 6 -6 -4 -8 -3 -5 3 4 6 0 16 -8 23 -8 7 -12 17 -8 23 4 6
1 7 -7 2 -10 -6 -12 -4 -7 8 3 10 2 17 -3 17 -16 0 -11 -37 5 -44 19 -7 19
-23 0 -23 -8 0 -13 2 -10 5 2 2 -3 11 -11 19 -8 8 -12 18 -10 22 4 6 -23 12
-71 15 -22 1 -34 16 -13 16 6 0 10 5 10 10 0 13 -22 8 -35 -8 -8 -10 -11 -9
-11 7 0 11 4 17 8 15 10 -6 11 10 1 19 -3 4 -12 2 -20 -4 -9 -9 -13 -8 -13 0
0 6 -5 11 -11 11 -5 0 -8 -4 -5 -8 3 -5 -2 -9 -10 -9 -9 0 -13 6 -10 14 3 8 1
11 -4 8 -6 -3 -10 0 -10 7 -1 7 -6 3 -13 -9 l-12 -23 -15 23 c-8 12 -14 26
-15 31 0 5 -11 13 -25 17 -24 9 -24 8 -6 -6 18 -14 18 -15 2 -15 -11 0 -15 -5
-10 -12 4 -8 3 -10 -2 -5 -5 5 -9 12 -9 15 0 14 -17 32 -25 27 -4 -3 -6 5 -3
17 5 22 5 22 -9 5 -13 -17 -15 -17 -27 -3 -7 9 -18 13 -24 9 -6 -3 -7 -1 -3 6
4 6 12 9 17 6 5 -4 9 -2 9 3 0 14 -25 21 -40 12 -8 -5 -19 -6 -25 -2 -5 4 -12
7 -15 7 -3 1 -17 12 -31 25 -24 21 -25 26 -11 36 12 9 12 13 2 19 -8 5 -11 4
-7 -2 8 -12 -12 -22 -30 -16 -7 2 -9 11 -6 19 3 8 0 14 -7 14 -6 0 -8 -4 -5
-10 3 -5 -1 -10 -9 -10 -8 0 -18 4 -21 10 -3 5 -12 10 -18 10 -7 0 -4 -7 6
-14 11 -9 14 -17 8 -20 -6 -4 -17 7 -26 25 -9 17 -12 28 -6 25 6 -4 11 -2 11
4 0 7 -7 9 -16 6 -9 -3 -18 -6 -20 -6 -3 0 -2 -5 2 -12 4 -6 -9 1 -29 16 -20
15 -39 27 -44 26 -4 -1 -9 2 -10 7 -2 5 10 8 27 7 16 -1 28 2 25 6 -3 4 -14 6
-25 3 -15 -4 -20 0 -20 16 0 13 -4 19 -10 16 -6 -4 -8 -11 -5 -16 4 -5 -1 -16
-10 -25 -14 -15 -15 -14 -11 12 l5 29 -20 -25 c-18 -23 -19 -23 -9 -2 8 16 8
22 0 22 -6 0 -8 4 -5 10 3 5 2 10 -4 10 -5 0 -13 -5 -16 -10 -3 -6 -11 -10
-16 -10 -6 0 -7 5 -4 10 3 6 2 10 -3 10 -6 0 -8 8 -5 19 3 10 0 22 -6 25 -6 4
-11 0 -11 -8 0 -9 -5 -16 -11 -16 -5 0 -7 -5 -4 -10 3 -6 -1 -10 -10 -10 -9 0
-14 4 -11 8 2 4 0 14 -5 22 -8 13 -10 13 -20 0 -9 -12 -10 -11 -6 7 3 13 1 26
-5 29 -5 3 -1 13 9 21 12 10 8 9 -11 -2 -27 -16 -29 -16 -38 0 -7 11 -17 15
-33 11 -19 -5 -22 -3 -18 14 3 12 0 20 -7 20 -7 0 -9 8 -5 23 5 19 5 20 -5 4
-9 -14 -8 -22 2 -34 12 -15 11 -15 -8 -5 -12 6 -25 8 -29 4 -5 -4 -5 -1 -1 5
5 9 0 13 -13 13 -20 0 -25 9 -22 38 1 6 -3 12 -9 12 -6 0 -8 5 -3 13 4 6 -5 4
-20 -5 -30 -21 -60 -25 -33 -5 17 13 17 14 0 28 -16 12 -17 12 -9 -1 7 -13 6
-13 -7 -2 -9 7 -20 12 -24 11 -33 -6 -44 2 -38 25 5 21 3 24 -16 19 -22 -6
-51 22 -44 42 3 6 -6 20 -18 30 -13 11 -18 13 -11 6 6 -7 9 -21 6 -30 -4 -14
-3 -14 6 -1 7 9 11 10 11 3 0 -23 -19 -23 -41 -1 -17 18 -20 19 -16 5 4 -9 2
-17 -3 -17 -5 0 -10 12 -12 28 -2 15 -8 26 -14 25 -7 -1 -19 6 -29 17 -13 15
-22 17 -36 9 -15 -7 -19 -6 -19 6 0 14 -12 20 -33 16 -5 -1 -6 3 -2 9 3 6 10
8 15 5 4 -3 6 4 3 15 -4 17 -8 18 -20 8 -11 -9 -19 -6 -39 15 -29 31 -36 34
-27 10 5 -15 3 -14 -10 2 -11 14 -12 24 -5 32 7 9 4 11 -11 8 -12 -2 -25 -6
-30 -9 -5 -3 -8 9 -6 27 1 17 0 24 -2 14 -2 -9 -9 -17 -14 -17 -6 0 -7 -5 -3
-12 5 -7 3 -8 -5 -4 -7 5 -10 11 -7 14 3 3 0 12 -7 20 -9 13 -9 14 1 8 7 -4
12 -2 12 4 0 7 -8 9 -20 5 -11 -4 -20 -2 -20 4 0 6 -10 11 -22 11 -19 0 -20 2
-8 11 12 9 11 10 -7 6 -15 -3 -23 0 -23 8 0 8 -5 17 -12 21 -7 5 -9 2 -4 -7 4
-8 1 -6 -7 4 -8 10 -13 28 -11 40 3 15 2 17 -3 7 -10 -20 -38 -19 -37 1 1 9
-5 16 -12 16 -7 0 -10 -5 -7 -10 3 -6 1 -7 -5 -3 -7 4 -12 16 -12 27 0 10 -3
18 -7 18 -21 -3 -33 2 -27 13 5 7 3 8 -6 3 -10 -6 -7 -12 11 -26 13 -10 20
-21 16 -25 -4 -4 -7 -1 -7 6 0 7 -3 10 -7 7 -3 -4 -13 3 -21 15 -14 19 -13 22
3 34 22 16 12 19 -15 4 -13 -7 -21 -7 -25 0 -3 5 1 10 9 10 9 0 16 4 16 10 0
5 -7 7 -15 4 -8 -4 -15 -1 -15 5 0 6 -7 8 -15 4 -10 -3 -15 -1 -13 7 2 7 -8
17 -22 21 -14 4 -21 7 -17 8 5 1 1 8 -8 17 -9 9 -19 14 -22 10 -3 -3 -12 2
-19 12 -11 14 -13 14 -14 2 0 -13 -1 -13 -10 0 -5 8 -15 15 -22 15 -7 0 -13 8
-14 18 -2 15 -1 15 3 1 4 -13 7 -14 13 -4 5 8 13 9 21 4 8 -5 43 -10 79 -11
60 -3 189 -18 370 -43 41 -6 109 -11 150 -11 l75 0 39 43 c37 42 38 44 34 107
-4 58 -7 67 -39 96 -26 23 -49 34 -85 39 -27 4 -80 13 -119 21 -38 7 -108 16
-155 20 -47 4 -90 11 -95 15 -6 5 -48 14 -95 20 -47 6 -112 17 -145 25 -33 7
-91 16 -130 20 -38 3 -83 10 -100 15 -16 5 -65 16 -108 24 -82 16 -144 50
-113 62 9 3 16 9 16 14 0 4 21 30 48 58 26 27 67 75 92 105 66 80 71 82 127
50 62 -34 130 -60 223 -84 76 -20 129 -28 320 -49 58 -6 134 -18 170 -25 36
-8 109 -19 164 -25 54 -6 102 -12 106 -15 16 -10 265 -36 290 -30 59 13 106
91 94 160 -12 74 -64 111 -170 120 -38 4 -96 13 -129 20 -33 7 -100 18 -150
25 -49 6 -112 15 -140 20 -27 5 -113 18 -190 29 -215 31 -256 38 -310 54 -79
22 -115 40 -115 57 1 8 41 58 91 110 50 52 109 116 132 143 22 26 46 47 52 47
7 0 43 -16 81 -36 85 -44 201 -83 274 -90 47 -5 60 -3 90 18 19 13 43 41 53
62 l18 39 76 -7 c41 -3 112 -14 156 -25 45 -10 116 -24 157 -31 112 -18 125
-23 128 -51 12 -96 49 -116 234 -130 207 -16 324 -1 478 61 140 56 204 112
570 500 101 107 227 240 280 295 603 627 1243 1311 1545 1650 667 751 1157
1527 1595 2525 23 52 48 108 56 124 8 16 14 37 14 47 0 14 6 17 28 13 15 -2
34 -7 42 -10 22 -8 193 -17 310 -16 103 1 261 15 310 28 73 18 79 18 86 -12 3
-16 10 -45 15 -64 4 -19 22 -109 38 -200 16 -91 39 -217 51 -280 12 -63 32
-180 45 -260 35 -218 62 -366 100 -560 19 -96 57 -299 85 -450 28 -151 66
-351 85 -445 l34 -170 -25 -115 c-13 -63 -37 -187 -53 -275 -16 -88 -53 -284
-81 -435 -75 -401 -128 -701 -145 -818 -14 -97 -49 -295 -111 -627 -54 -296
-93 -535 -103 -650 -7 -66 -18 -185 -26 -265 -35 -348 -32 -406 23 -472 68
-81 201 -78 268 6 31 38 52 90 115 286 22 69 58 175 79 235 51 144 112 364
166 600 68 300 153 654 174 725 10 36 44 171 75 300 30 129 78 327 105 440 77
317 178 772 209 940 11 60 6 255 -7 305 -6 22 -25 105 -41 185 -33 161 -109
498 -169 750 -22 91 -57 237 -77 325 -20 88 -63 264 -95 390 -77 307 -144 595
-170 733 l-22 113 24 19 c13 11 29 19 36 20 6 0 12 4 12 10 0 5 4 9 9 7 9 -2
55 32 102 76 10 9 22 17 25 17 10 0 239 219 239 230 0 3 11 17 25 31 39 41 69
79 63 79 -3 0 3 8 14 18 11 9 23 27 27 40 4 12 12 22 17 22 5 0 9 7 9 15 0 8
5 15 11 15 5 0 7 5 4 10 -3 6 -1 10 5 10 6 0 8 5 5 10 -3 6 -1 10 4 10 8 0 11
292 11 965 l0 964 -22 22 c-13 12 -16 18 -8 14 8 -5 3 4 -12 19 -15 16 -30 37
-33 47 -4 10 -10 19 -15 19 -5 0 -12 9 -15 20 -6 20 -15 20 -1498 20 -1469 -1
-1492 -1 -1516 -20z m355 -2659 c-9 -16 -16 -35 -16 -41 0 -7 -12 -42 -26 -78
-14 -37 -31 -83 -39 -102 -24 -63 -98 -244 -117 -287 -10 -23 -18 -44 -18 -47
0 -3 -16 -40 -36 -83 -20 -43 -42 -91 -49 -108 -40 -89 -205 -413 -264 -518
-37 -67 -82 -147 -99 -178 -73 -132 -322 -518 -347 -539 -15 -13 -134 -5 -308
20 -38 6 -150 17 -250 26 -208 18 -261 28 -250 49 8 12 180 196 375 400 47 49
103 108 124 130 20 22 94 101 164 175 70 74 144 153 165 175 20 22 78 83 128
135 51 53 124 130 162 171 181 195 225 241 319 339 113 118 333 351 368 391
28 31 36 14 14 -30z m-3184 -1303 c10 -57 23 -128 28 -158 5 -30 16 -93 24
-140 9 -47 27 -152 41 -235 14 -82 29 -170 34 -195 5 -25 14 -74 20 -110 6
-36 25 -141 42 -235 39 -222 49 -278 49 -290 0 -11 -38 -55 -139 -160 -36 -38
-147 -155 -246 -260 -287 -306 -348 -366 -357 -357 -4 4 -15 46 -23 92 -8 47
-22 123 -30 170 -26 143 -82 463 -98 565 -20 121 -73 422 -99 554 l-20 103 29
32 c15 17 71 76 123 131 52 55 160 170 240 255 261 279 343 361 353 351 5 -5
18 -56 29 -113z m1368 -878 c85 -10 187 -21 225 -25 39 -3 122 -12 185 -20 63
-8 165 -19 225 -25 61 -6 137 -15 170 -21 61 -9 325 -39 351 -39 8 0 14 -7 14
-16 0 -17 -133 -187 -275 -353 l-89 -103 -46 5 c-25 3 -101 12 -170 21 -69 8
-217 25 -330 36 -113 12 -241 25 -285 30 -44 6 -143 17 -220 25 -451 48 -458
49 -453 70 2 7 95 110 207 229 l203 216 67 -6 c36 -3 136 -14 221 -24z m-6055
-1230 c3 -5 1 -10 -4 -10 -6 0 -11 5 -11 10 0 6 2 10 4 10 3 0 8 -4 11 -10z
m1019 -1525 c7 -19 -3 -19 -28 0 -19 15 -19 15 1 15 11 0 23 -7 27 -15z m82
-112 c-10 -10 -19 5 -10 18 6 11 8 11 12 0 2 -7 1 -15 -2 -18z m64 -59 c0 -2
-7 -4 -15 -4 -8 0 -15 4 -15 10 0 5 7 7 15 4 8 -4 15 -8 15 -10z m34 -52 c3
-5 -1 -9 -9 -9 -8 0 -12 4 -9 9 3 4 7 8 9 8 2 0 6 -4 9 -8z m2382 -2046 c1 -7
-4 -13 -11 -13 -7 0 -11 7 -10 16 2 9 4 18 4 20 2 8 15 -10 17 -23z m574 -338
c0 -5 4 -7 9 -3 6 3 15 -4 22 -16 l11 -22 -31 22 c-35 25 -49 44 -27 35 9 -3
16 -10 16 -16z m515 -248 c3 -5 -3 -10 -15 -10 -12 0 -18 5 -15 10 3 6 10 10
15 10 5 0 12 -4 15 -10z"/>
<path d="M60 4900 c0 -5 5 -10 10 -10 6 0 10 5 10 10 0 6 -4 10 -10 10 -5 0
-10 -4 -10 -10z"/>
<path d="M1517 2829 c7 -7 15 -10 18 -7 3 3 -2 9 -12 12 -14 6 -15 5 -6 -5z"/>
<path d="M1570 2790 c0 -5 5 -10 11 -10 5 0 7 5 4 10 -3 6 -8 10 -11 10 -2 0
-4 -4 -4 -10z"/>
<path d="M1580 2748 c0 -7 5 -20 10 -28 8 -12 10 -11 10 7 0 12 -4 25 -10 28
-5 3 -10 0 -10 -7z"/>
<path d="M2975 1490 c3 -5 8 -10 11 -10 2 0 4 5 4 10 0 6 -5 10 -11 10 -5 0
-7 -4 -4 -10z"/>
<path d="M3106 1369 c3 -5 12 -9 21 -9 19 0 9 13 -12 16 -8 1 -13 -2 -9 -7z"/>
<path d="M3155 1350 c-3 -5 -1 -10 4 -10 6 0 11 5 11 10 0 6 -2 10 -4 10 -3 0
-8 -4 -11 -10z"/>
<path d="M3316 1208 c3 -5 10 -6 15 -3 13 9 11 12 -6 12 -8 0 -12 -4 -9 -9z"/>
<path d="M3381 1188 c-1 -21 15 -32 25 -17 4 7 3 9 -4 5 -6 -3 -13 2 -15 11
-4 16 -5 16 -6 1z"/>
<path d="M3446 1152 c-3 -5 1 -9 9 -9 8 0 12 4 9 9 -3 4 -7 8 -9 8 -2 0 -6 -4
-9 -8z"/>
<path d="M3491 1126 c-7 -8 -8 -17 -3 -20 6 -3 13 1 16 10 9 23 2 28 -13 10z"/>
<path d="M3620 1051 c0 -6 4 -13 10 -16 6 -3 7 1 4 9 -7 18 -14 21 -14 7z"/>
<path d="M3627 1006 c-5 -12 0 -16 21 -15 16 0 21 3 12 6 -8 3 -18 10 -21 15
-3 5 -9 3 -12 -6z"/>
<path d="M3770 910 c0 -5 5 -10 11 -10 5 0 7 5 4 10 -3 6 -8 10 -11 10 -2 0
-4 -4 -4 -10z"/>
<path d="M4171 677 c2 -1 11 -8 21 -15 12 -10 18 -10 24 -1 4 7 3 9 -4 5 -6
-3 -13 -2 -17 4 -3 5 -11 10 -17 10 -6 0 -9 -1 -7 -3z"/>
<path d="M4266 657 c3 -10 9 -15 12 -12 3 3 0 11 -7 18 -10 9 -11 8 -5 -6z"/>
<path d="M4380 570 c0 -6 7 -13 15 -17 24 -9 27 1 5 15 -13 8 -20 8 -20 2z"/>
<path d="M4810 386 c0 -2 8 -10 18 -17 15 -13 16 -12 3 4 -13 16 -21 21 -21
13z"/>
<path d="M4921 334 c0 -11 3 -14 6 -6 3 7 2 16 -1 19 -3 4 -6 -2 -5 -13z"/>
<path d="M4970 269 c0 -5 5 -7 10 -4 6 3 10 8 10 11 0 2 -4 4 -10 4 -5 0 -10
-5 -10 -11z"/>
<path d="M5190 216 c0 -2 7 -7 16 -10 8 -3 12 -2 9 4 -6 10 -25 14 -25 6z"/>
<path d="M5216 177 c3 -10 9 -15 12 -12 3 3 0 11 -7 18 -10 9 -11 8 -5 -6z"/>
<path d="M5325 151 c-3 -6 -11 -9 -16 -6 -5 4 -9 1 -9 -4 0 -13 10 -14 30 -1
8 5 12 12 8 15 -3 4 -9 1 -13 -4z"/>
<path d="M5340 120 c0 -5 4 -10 9 -10 6 0 13 5 16 10 3 6 -1 10 -9 10 -9 0
-16 -4 -16 -10z"/>
<path d="M5663 3 c9 -2 23 -2 30 0 6 3 -1 5 -18 5 -16 0 -22 -2 -12 -5z"/>
</g>
</svg>
